<svg width="231" height="40" viewBox="0 0 231 40" fill="none" xmlns="http://www.w3.org/2000/svg">
<path d="M20.3444 0.0171169C24.2373 0.0852656 27.1057 1.31194 29.6327 3.35641C30.4523 4.03789 31.2035 4.71938 32.0231 5.40087C32.0914 5.46902 32.4328 5.40087 32.5694 5.26457C34.0037 4.17419 35.4379 2.94751 36.9404 1.92528C39.1259 0.562307 41.5162 -0.119181 44.1115 0.0171169C47.0482 0.153414 49.7118 1.17565 51.9656 3.01566C54.7657 5.26457 56.1316 8.26312 56.4048 11.8069C56.678 14.7372 55.995 17.5313 54.9023 20.2573C53.2632 24.2099 50.5313 27.2766 47.3897 30.0707C44.453 32.6604 41.3114 35.0456 38.0331 37.2263C36.9404 37.9078 35.7794 38.5893 34.6866 39.2708C32.9792 40.3612 31.3401 40.1567 29.6327 39.1345C25.7398 36.8856 22.1201 34.2959 18.7053 31.3655C17.2711 30.1389 15.7686 28.844 14.4709 27.4129C11.3293 24.1418 9.07555 20.2573 8.32429 15.7595C7.70962 12.2839 8.1194 9.01275 9.9634 5.94606C11.6025 3.22011 14.0612 1.51639 17.1345 0.562307C18.2955 0.289712 19.5932 0.153414 20.3444 0.0171169Z" fill="url(#paint0_linear_1124_4605)"/>
<path d="M12.2866 0.0171169C16.1794 0.0852656 19.0479 1.31194 21.5748 3.35641C22.3944 4.03789 23.1457 4.71938 23.9652 5.40087C24.0335 5.46902 24.375 5.40087 24.5116 5.26457C25.9458 4.17419 27.38 2.94751 28.8825 1.92528C31.068 0.562307 33.4584 -0.119181 36.0536 0.0171169C38.9904 0.153414 41.6539 1.17565 43.9077 3.01566C46.7078 5.26457 48.0738 8.26312 48.347 11.8069C48.6201 14.7372 47.9372 17.5313 46.8444 20.2573C45.2053 24.2099 42.4735 27.2766 39.3319 30.0707C36.3951 32.6604 33.2535 35.0456 29.9753 37.2263C28.8825 37.9078 27.7215 38.5893 26.6288 39.2708C24.9214 40.3612 23.2822 40.1567 21.5748 39.1345C17.682 36.8856 14.0623 34.2959 10.6474 31.3655C9.21323 30.1389 7.71071 28.844 6.41308 27.4129C3.27146 24.1418 1.01768 20.2573 0.266426 15.7595C-0.348239 12.2839 0.0615378 9.01275 1.90554 5.94606C3.54464 3.22011 6.00331 1.51639 9.07664 0.562307C10.2377 0.289712 11.5353 0.153414 12.2866 0.0171169Z" fill="url(#paint1_linear_1124_4605)"/>
<path d="M67.1277 26.5216V13.9141H72.6597V25.0905C72.6597 28.9068 73.8207 30.2016 76.416 30.2016C78.8746 30.2016 81.0601 28.1572 81.0601 24.1364V13.9141H86.7287V34.7676H81.0601V32.3142L80.9918 32.2461C79.421 34.1542 77.1672 35.1765 74.8452 35.1765C70.2693 35.1765 67.1277 32.8594 67.1277 26.5216Z" fill="white"/>
<path d="M92.1221 13.9032H97.7224V16.561H97.7907C99.4298 14.5847 101.888 13.5625 104.484 13.5625C108.923 13.5625 112.065 15.9477 112.065 22.3537V34.7568H106.464V23.853C106.464 19.9003 105.03 18.6737 102.435 18.6737C99.6347 18.6737 97.7224 20.65 97.7224 24.3982V34.8249H92.1221V13.9032Z" fill="white"/>
<path d="M122.652 32.241L122.584 32.3091V34.8306H117.257V3.41406H122.857V16.3623H122.926C124.496 14.5905 126.682 13.7045 129.277 13.7045C134.946 13.7045 139.18 18.2023 139.18 24.5402C139.18 31.0143 134.946 35.3077 129.141 35.3077C126.272 35.1714 124.155 34.1491 122.652 32.241ZM133.443 24.472C133.443 20.8601 131.053 18.6112 128.048 18.6112C124.838 18.6112 122.584 21.0646 122.584 24.472C122.584 27.8795 124.975 30.1284 128.048 30.1284C131.19 30.1284 133.443 27.8113 133.443 24.472Z" fill="white"/>
<path d="M142.389 24.4081C142.389 18.2066 146.828 13.6406 153.521 13.6406C160.009 13.6406 164.585 18.0021 164.585 24.4081C164.585 30.746 160.009 35.2438 153.521 35.2438C146.828 35.1756 142.389 30.6097 142.389 24.4081ZM158.917 24.4081C158.917 21.0007 156.595 18.6155 153.521 18.6155C150.243 18.6155 148.057 21.0688 148.057 24.4081C148.057 27.6793 150.311 30.2008 153.521 30.2008C156.526 30.1326 158.917 27.8156 158.917 24.4081Z" fill="white"/>
<path d="M172.576 24.1364L165.405 13.9141H171.825L175.649 19.9112H175.717L179.61 13.9141H185.962L178.791 24.1364L186.098 34.7676H179.952L175.786 28.7705H175.717L171.415 34.7676H165.336L172.576 24.1364Z" fill="white"/>
<path d="M187.192 24.4039C187.192 18.066 191.495 13.5682 197.095 13.5682C199.69 13.5682 201.876 14.5223 203.447 16.2942H203.515V3.41406H209.047V34.8306H203.72V32.241H203.652C202.217 34.1491 200.032 35.1714 197.163 35.1714C191.426 35.1714 187.192 30.878 187.192 24.4039ZM203.72 24.472C203.72 21.1327 201.466 18.6112 198.256 18.6112C195.251 18.6112 192.929 20.8601 192.929 24.472C192.929 27.8113 195.183 30.1284 198.256 30.1284C201.329 30.1284 203.72 27.8795 203.72 24.472Z" fill="white"/>
<rect x="204" y="12" width="26.3548" height="21.8387" rx="10.9194" fill="#F7D38F"/>
<path d="M210.188 25.2601C210.188 25.3452 210.265 25.4219 210.35 25.4219H210.682C210.759 25.4219 210.819 25.3537 210.844 25.2601L210.929 24.9961C210.929 24.9961 211.33 25.507 212.045 25.507C212.973 25.507 213.68 24.698 213.68 23.7186C213.68 22.7223 213.007 21.9303 211.994 21.9303C211.653 21.9303 211.389 22.0239 211.236 22.0836V19.6224C211.236 19.5372 211.159 19.4606 211.074 19.4606H210.35C210.265 19.4606 210.188 19.5372 210.188 19.6224V25.2601ZM211.202 24.0337V23.0459C211.202 23.0459 211.44 22.85 211.866 22.85C212.343 22.85 212.692 23.2417 212.692 23.7186C212.692 24.1956 212.369 24.5873 211.917 24.5873C211.466 24.5873 211.261 24.2381 211.202 24.0337ZM214.191 23.7186C214.191 24.698 214.915 25.507 215.937 25.507C216.49 25.507 216.925 25.3026 217.206 25.0386C217.291 24.9705 217.274 24.8768 217.214 24.8172L216.865 24.417C216.805 24.3488 216.729 24.3659 216.644 24.417C216.49 24.5277 216.243 24.6299 215.979 24.6299C215.485 24.6299 215.187 24.2381 215.162 23.889H217.342C217.419 23.889 217.495 23.8294 217.504 23.7442C217.512 23.6846 217.521 23.5739 217.521 23.5143C217.521 22.5945 216.805 21.9303 215.928 21.9303C214.915 21.9303 214.191 22.7563 214.191 23.7186ZM215.239 23.2928C215.281 22.9692 215.562 22.7137 215.903 22.7137C216.226 22.7137 216.499 22.9777 216.524 23.2928H215.239ZM218.418 24.4085C218.418 25.0983 218.707 25.507 219.363 25.507C219.78 25.507 220.334 25.3112 220.376 25.2856C220.462 25.2516 220.504 25.1664 220.47 25.0812L220.3 24.5447C220.274 24.4596 220.206 24.417 220.112 24.451C220.019 24.4851 219.84 24.5447 219.695 24.5447C219.559 24.5447 219.431 24.5106 219.431 24.2722V22.9096H220.181C220.274 22.9096 220.342 22.833 220.342 22.7478V22.1772C220.342 22.0836 220.274 22.0154 220.181 22.0154H219.431V21.0616C219.431 20.9765 219.363 20.8998 219.278 20.8998L218.58 20.9083C218.494 20.9083 218.418 20.985 218.418 21.0701V22.0154H218.128C218.043 22.0154 217.975 22.0836 217.975 22.1772V22.7478C217.975 22.833 218.043 22.9096 218.128 22.9096H218.418V24.4085ZM220.928 24.3403C220.928 25.0642 221.396 25.507 222.077 25.507C222.605 25.507 222.92 25.2516 223.116 25.0727L223.218 25.3026C223.261 25.3963 223.304 25.4219 223.363 25.4219H223.67C223.755 25.4219 223.832 25.3452 223.832 25.2601V23.4121C223.832 22.4838 223.585 21.9303 222.52 21.9303C221.975 21.9303 221.43 22.0665 221.362 22.0921C221.285 22.1176 221.217 22.1772 221.243 22.305L221.319 22.7478C221.336 22.8585 221.396 22.9352 221.515 22.9011C221.711 22.8415 222.154 22.7734 222.469 22.7734C222.784 22.7734 222.92 22.9266 222.912 23.361C222.912 23.361 222.631 23.2673 222.29 23.2673C221.422 23.2673 220.928 23.7357 220.928 24.3403ZM221.864 24.3403C221.864 24.0678 222.086 23.8805 222.418 23.8805C222.665 23.8805 222.895 23.9826 222.895 23.9826V24.451C222.844 24.5532 222.58 24.7832 222.307 24.7832C222.043 24.7832 221.864 24.5958 221.864 24.3403Z" fill="#8A6011"/>
<defs>
<linearGradient id="paint0_linear_1124_4605" x1="32.2135" y1="39.8035" x2="32.2135" y2="-0.243689" gradientUnits="userSpaceOnUse">
<stop stop-color="#2E651E"/>
<stop offset="1" stop-color="#7DC670"/>
</linearGradient>
<linearGradient id="paint1_linear_1124_4605" x1="24.1642" y1="39.8035" x2="24.1642" y2="-0.243689" gradientUnits="userSpaceOnUse">
<stop stop-color="#BDBDBD"/>
<stop offset="1" stop-color="#EEEEEE"/>
</linearGradient>
</defs>
</svg>
