<svg width="17" height="11" viewBox="0 0 17 11" fill="none" xmlns="http://www.w3.org/2000/svg">
<path d="M0.972 5.222L6.102 0.0829995L6.651 0.649999C6.771 0.77 6.816 0.893 6.786 1.019C6.762 1.139 6.699 1.253 6.597 1.361L4.014 3.926C3.732 4.208 3.474 4.439 3.24 4.619C3.54 4.583 3.855 4.553 4.185 4.529C4.521 4.505 4.866 4.493 5.22 4.493H16.938V5.96H5.22C4.866 5.96 4.521 5.948 4.185 5.924C3.855 5.9 3.54 5.87 3.24 5.834C3.462 6.002 3.72 6.23 4.014 6.518L6.615 9.11C6.723 9.218 6.789 9.332 6.813 9.452C6.837 9.572 6.792 9.692 6.678 9.812L6.12 10.388L0.972 5.222Z" fill="white"/>
</svg>
