<svg width="39" height="39" viewBox="0 0 39 39" fill="none" xmlns="http://www.w3.org/2000/svg">
<rect width="38.8409" height="38.8409" rx="12.6617" fill="#1DA1F2"/>
<path d="M16.5383 25.2464C22.4014 25.2464 25.6077 20.5149 25.6077 16.4119C25.6077 16.2775 25.6049 16.1437 25.5987 16.0105C26.2211 15.5722 26.762 15.0253 27.1887 14.4027C26.6176 14.6499 26.0029 14.8164 25.3582 14.8915C26.0163 14.5071 26.5215 13.899 26.7599 13.1741C26.144 13.5297 25.462 13.7882 24.7358 13.9278C24.1541 13.3243 23.326 12.9468 22.4091 12.9468C20.6488 12.9468 19.2214 14.3373 19.2214 16.0514C19.2214 16.295 19.2493 16.532 19.304 16.7594C16.6548 16.6295 14.3057 15.3939 12.7335 13.5152C12.4597 13.9741 12.3019 14.5071 12.3019 15.0758C12.3019 16.1531 12.8646 17.1041 13.7204 17.6604C13.1974 17.6447 12.7061 17.5048 12.2768 17.2721C12.2763 17.2851 12.2763 17.2978 12.2763 17.3117C12.2763 18.8155 13.375 20.071 14.8336 20.3555C14.5657 20.4266 14.2839 20.4647 13.993 20.4647C13.788 20.4647 13.5882 20.4451 13.394 20.4088C13.7998 21.6425 14.9765 22.5402 16.3716 22.5653C15.2807 23.3983 13.9063 23.8944 12.4127 23.8944C12.1557 23.8944 11.9018 23.8802 11.6523 23.8514C13.0631 24.7323 14.7381 25.2462 16.5385 25.2462" fill="white"/>
</svg>
