<svg width="39" height="39" viewBox="0 0 39 39" fill="none" xmlns="http://www.w3.org/2000/svg">
<rect width="38.8409" height="38.8409" rx="12.6617" fill="url(#paint0_linear)"/>
<path d="M15.6766 24.0985L15.9172 24.2412C16.9276 24.8415 18.0859 25.159 19.2673 25.1596H19.2698C22.8977 25.1596 25.8503 22.2045 25.8517 18.5723C25.8524 16.8122 25.1684 15.1571 23.9257 13.9121C22.6829 12.667 21.0305 11.9811 19.2723 11.9803C15.6416 11.9803 12.6891 14.9351 12.6877 18.567C12.6871 19.8116 13.0351 21.0238 13.6939 22.0726L13.8505 22.3218L13.1855 24.7525L15.6766 24.0985ZM11.2842 26.6354L12.4077 22.5286C11.7147 21.3268 11.3502 19.9633 11.3506 18.5665C11.3524 14.1967 14.9046 10.6416 19.2698 10.6416C21.3881 10.6426 23.3763 11.4679 24.8716 12.9659C26.3666 14.464 27.1897 16.4551 27.189 18.5729C27.187 22.9425 23.6342 26.4982 19.2698 26.4982C19.2695 26.4982 19.2701 26.4982 19.2698 26.4982H19.2664C17.9412 26.4976 16.6389 26.1648 15.4822 25.5333L11.2842 26.6354Z" fill="white"/>
<path fill-rule="evenodd" clip-rule="evenodd" d="M17.2908 15.2536C17.1425 14.9238 16.9865 14.9171 16.8456 14.9113C16.7302 14.9064 16.5982 14.9067 16.4663 14.9067C16.3343 14.9067 16.12 14.9563 15.9387 15.1546C15.7573 15.3528 15.2461 15.8319 15.2461 16.8066C15.2461 17.7812 15.9552 18.7229 16.054 18.8552C16.1529 18.9873 17.4228 21.0512 19.4342 21.8452C21.1056 22.505 21.4457 22.3738 21.8086 22.3408C22.1714 22.3078 22.9793 21.8616 23.1441 21.3991C23.309 20.9366 23.309 20.5403 23.2596 20.4574C23.2101 20.3747 23.0782 20.3253 22.8802 20.2263C22.6823 20.1272 21.7095 19.6479 21.5281 19.5819C21.3467 19.5158 21.2149 19.4828 21.0829 19.681C20.951 19.8793 20.5721 20.3253 20.4565 20.4574C20.3411 20.5897 20.2257 20.6062 20.0277 20.5072C19.8299 20.4079 19.1926 20.1989 18.4366 19.5241C17.8483 18.9991 17.4513 18.3506 17.3358 18.1524C17.2204 17.9542 17.3234 17.847 17.4227 17.7482C17.5115 17.6595 17.6205 17.5169 17.7196 17.4012C17.8182 17.2856 17.8513 17.203 17.9172 17.071C17.9832 16.9387 17.9502 16.8231 17.9007 16.724C17.8513 16.625 17.4667 15.6453 17.2908 15.2536Z" fill="white"/>
<defs>
<linearGradient id="paint0_linear" x1="4.71058e-07" y1="35.6042" x2="42.0776" y2="4.53144" gradientUnits="userSpaceOnUse">
<stop stop-color="#22B139"/>
<stop offset="1" stop-color="#5FD569"/>
</linearGradient>
</defs>
</svg>
