<svg width="34" height="28" viewBox="0 0 34 28" fill="none" xmlns="http://www.w3.org/2000/svg">
    <path d="M32.3414 4.1C31.3414 4.6 30.2414 4.8 29.1414 5C29.6414 4.9 30.4414 4 30.7414 3.6C31.2414 3 31.5414 2.4 31.8414 1.7C31.8414 1.6 31.8414 1.6 31.8414 1.5C31.7414 1.5 31.7414 1.5 31.6414 1.5C30.4414 2.1 29.1414 2.6 27.8414 2.9C27.7414 2.9 27.6414 2.9 27.5414 2.8C27.4414 2.7 27.3414 2.6 27.2414 2.5C26.7414 2.1 26.1414 1.7 25.4414 1.5C24.5414 1.1 23.5414 1 22.6414 1C21.7414 1.1 20.8414 1.3 19.9414 1.8C19.1414 2.2 18.3414 2.8 17.7414 3.6C17.1414 4.4 16.6414 5.2 16.4414 6.2C16.2414 7.1 16.2414 8 16.3414 8.9C16.3414 9.1 16.3414 9.1 16.2414 9.1C11.0414 8.3 6.74142 6.5 3.24142 2.5C3.04142 2.3 3.04142 2.3 2.84142 2.5C1.44142 4.7 2.14142 8.3 4.04142 10.2C4.34142 10.4 4.54142 10.7 4.84142 10.9C4.74142 10.9 3.44142 10.8 2.34142 10.2C2.14142 10.1 2.14142 10.2 2.14142 10.3C2.14142 10.5 2.14142 10.8 2.14142 11C2.44142 13.4 4.04142 15.5 6.24142 16.4C6.54142 16.5 6.84142 16.6 7.04142 16.7C6.54142 16.8 6.04142 16.9 4.54142 16.8C4.44142 16.6 4.44142 16.7 4.44142 16.9C5.54142 19.9 7.84142 20.7 9.64142 21.2C9.84142 21.2 10.1414 21.2 10.3414 21.3C9.74142 22.2 7.74142 22.8 6.84142 23.2C5.14142 23.8 3.24142 24.1 1.44142 23.9C1.14142 23.9 1.14142 23.9 1.04142 23.9C0.941421 23.9 1.04142 24 1.14142 24.1C1.54142 24.3 1.84142 24.6 2.24142 24.8C3.34142 25.4 4.54142 25.9 5.84142 26.2C12.2414 28 19.5414 26.7 24.3414 21.9C28.1414 18.1 29.4414 12.9 29.4414 7.7C29.4414 7.5 29.6414 7.4 29.8414 7.3C30.8414 6.6 31.6414 5.7 32.3414 4.7C32.5414 4.5 32.5414 4.3 32.5414 4.2C32.5414 4 32.5414 4.1 32.3414 4.1Z" stroke="white" stroke-width="2" stroke-miterlimit="10"/>
</svg>
