<svg width="29" height="29" viewBox="0 0 29 29" fill="none" xmlns="http://www.w3.org/2000/svg">
    <path d="M21 27.1H7.1C3.7 27.1 1 24.4 1 21V7.1C1 3.7 3.7 1 7.1 1H20.9C24.3 1 27 3.7 27 7.1V20.9C27.1 24.3 24.3 27.1 21 27.1Z" stroke="white" stroke-width="2" stroke-miterlimit="10"/>
    <path d="M14 20C17.3137 20 20 17.3137 20 14C20 10.6863 17.3137 8 14 8C10.6863 8 8 10.6863 8 14C8 17.3137 10.6863 20 14 20Z" stroke="white" stroke-width="2" stroke-miterlimit="10"/>
    <path d="M22.3 7.99998C22.9627 7.99998 23.5 7.46272 23.5 6.79998C23.5 6.13723 22.9627 5.59998 22.3 5.59998C21.6373 5.59998 21.1 6.13723 21.1 6.79998C21.1 7.46272 21.6373 7.99998 22.3 7.99998Z" stroke="white" stroke-width="2" stroke-miterlimit="10"/>
</svg>
