<svg width="167" height="33" viewBox="0 0 167 33" fill="none" xmlns="http://www.w3.org/2000/svg">
<path d="M16.2473 0.999997C19.356 1.05442 21.6467 2.03401 23.6646 3.66666C24.3191 4.21088 24.919 4.7551 25.5735 5.29932C25.6281 5.35374 25.9008 5.29932 26.0098 5.19047C27.1552 4.31973 28.3005 3.34013 29.5004 2.52381C31.2456 1.43537 33.1545 0.891154 35.227 0.999997C37.5722 1.10884 39.6993 1.92517 41.4991 3.39456C43.7352 5.19047 44.826 7.58503 45.0441 10.415C45.2623 12.7551 44.7169 14.9864 43.8443 17.1633C42.5353 20.3197 40.3537 22.7687 37.8449 25C35.4997 27.068 32.9909 28.9728 30.373 30.7143C29.5004 31.2585 28.5732 31.8027 27.7006 32.3469C26.3371 33.2177 25.0281 33.0544 23.6646 32.2381C20.5559 30.4422 17.6653 28.3741 14.9383 26.034C13.793 25.0544 12.5931 24.0204 11.5569 22.8775C9.04805 20.2653 7.24824 17.1633 6.64831 13.5714C6.15745 10.7959 6.48469 8.18367 7.95726 5.73469C9.2662 3.55782 11.2296 2.19728 13.6839 1.43537C14.6111 1.21768 15.6473 1.10884 16.2473 0.999997Z" fill="url(#paint0_linear)"/>
<path d="M9.81172 0.999997C12.9205 1.05442 15.2111 2.03401 17.2291 3.66666C17.8836 4.21088 18.4835 4.7551 19.138 5.29932C19.1925 5.35374 19.4652 5.29932 19.5743 5.19047C20.7196 4.31973 21.865 3.34013 23.0648 2.52381C24.8101 1.43537 26.719 0.891154 28.7915 0.999997C31.1367 1.10884 33.2637 1.92517 35.0635 3.39456C37.2996 5.19047 38.3904 7.58503 38.6086 10.415C38.8267 12.7551 38.2813 14.9864 37.4087 17.1633C36.0998 20.3197 33.9182 22.7687 31.4094 25C29.0642 27.068 26.5553 28.9728 23.9375 30.7143C23.0648 31.2585 22.1376 31.8027 21.265 32.3469C19.9015 33.2177 18.5926 33.0544 17.2291 32.2381C14.1203 30.4422 11.2297 28.3741 8.50277 26.034C7.35744 25.0544 6.15757 24.0204 5.12132 22.8775C2.6125 20.2653 0.812696 17.1633 0.212761 13.5714C-0.278095 10.7959 0.0491425 8.18367 1.52171 5.73469C2.83066 3.55782 4.79408 2.19728 7.24836 1.43537C8.17553 1.21768 9.21178 1.10884 9.81172 0.999997Z" fill="url(#paint1_linear)"/>
<path d="M53.6074 22.1701V12.1021H58.0251V21.0272C58.0251 24.0748 58.9523 25.1089 61.0248 25.1089C62.9882 25.1089 64.7335 23.4762 64.7335 20.2653V12.1021H69.2603V28.7551H64.7335V26.7959L64.6789 26.7415C63.4245 28.2653 61.6247 29.0816 59.7704 29.0816C56.1162 29.0816 53.6074 27.2313 53.6074 22.1701Z" fill="white"/>
<path d="M73.5684 12.1021H78.0406V14.2245H78.0951C79.4041 12.6463 81.3675 11.83 83.44 11.83C86.9851 11.83 89.4939 13.7347 89.4939 18.8504V28.7551H85.0217V20.0476C85.0217 16.8912 83.8763 15.9116 81.8038 15.9116C79.5677 15.9116 78.0406 17.4898 78.0406 20.483V28.8095H73.5684V12.1021Z" fill="white"/>
<path d="M97.9483 26.7415L97.8937 26.7959V28.8095H93.6396V3.7211H98.1119V14.0612H98.1664C99.4208 12.6463 101.166 11.9388 103.239 11.9388C107.765 11.9388 111.147 15.5306 111.147 20.5918C111.147 25.7619 107.765 29.1905 103.13 29.1905C100.839 29.0816 99.1481 28.2653 97.9483 26.7415ZM106.566 20.5374C106.566 17.6531 104.657 15.8572 102.257 15.8572C99.6935 15.8572 97.8937 17.8163 97.8937 20.5374C97.8937 23.2585 99.8026 25.0544 102.257 25.0544C104.766 25.0544 106.566 23.2041 106.566 20.5374Z" fill="white"/>
<path d="M113.71 20.483C113.71 15.5306 117.255 11.8844 122.6 11.8844C127.781 11.8844 131.435 15.3674 131.435 20.483C131.435 25.5442 127.781 29.1361 122.6 29.1361C117.255 29.0816 113.71 25.4354 113.71 20.483ZM126.909 20.483C126.909 17.7619 125.054 15.8572 122.6 15.8572C119.982 15.8572 118.237 17.8163 118.237 20.483C118.237 23.0953 120.037 25.1089 122.6 25.1089C125 25.0544 126.909 23.2041 126.909 20.483Z" fill="white"/>
<path d="M137.816 20.2653L132.09 12.1021H137.216L140.271 16.8912H140.325L143.434 12.1021H148.506L142.779 20.2653L148.615 28.7551H143.707L140.38 23.966H140.325L136.889 28.7551H132.035L137.816 20.2653Z" fill="white"/>
<path d="M149.488 20.483C149.488 15.4218 152.924 11.8299 157.397 11.8299C159.469 11.8299 161.214 12.5918 162.469 14.0068H162.523V3.7211H166.941V28.8095H162.687V26.7415H162.632C161.487 28.2653 159.742 29.0816 157.451 29.0816C152.87 29.0816 149.488 25.6531 149.488 20.483ZM162.687 20.5374C162.687 17.8708 160.887 15.8572 158.324 15.8572C155.924 15.8572 154.07 17.6531 154.07 20.5374C154.07 23.2041 155.869 25.0544 158.324 25.0544C160.778 25.0544 162.687 23.2585 162.687 20.5374Z" fill="white"/>
<defs>
<linearGradient id="paint0_linear" x1="25.7256" y1="32.7724" x2="25.7256" y2="0.791725" gradientUnits="userSpaceOnUse">
<stop stop-color="#2E651E"/>
<stop offset="1" stop-color="#7DC670"/>
</linearGradient>
<linearGradient id="paint1_linear" x1="19.2969" y1="32.7724" x2="19.2969" y2="0.791725" gradientUnits="userSpaceOnUse">
<stop stop-color="#BDBDBD"/>
<stop offset="1" stop-color="#EEEEEE"/>
</linearGradient>
</defs>
</svg>
