<svg width="961" height="193" viewBox="0 0 961 193" fill="none" xmlns="http://www.w3.org/2000/svg">
<g opacity="0.5" clip-path="url(#clip0_728_2323)">
<path opacity="0.5451" d="M827.913 216.521C829.593 210.645 826.233 203.509 818.674 201.41C812.795 199.731 806.915 203.928 806.915 203.928C806.915 203.928 804.816 196.793 798.936 194.694C791.797 191.755 785.078 195.533 782.558 201.41C780.039 207.287 782.558 214.003 784.658 218.62C787.598 224.917 792.637 232.472 795.997 235.83C800.616 234.991 809.435 232.053 815.734 228.694C820.354 226.596 826.233 222.818 827.913 216.521Z" fill="url(#paint0_linear_728_2323)"/>
<path opacity="0.6083" d="M421.824 109.482C423.504 106.544 422.244 102.766 418.885 100.667C415.945 98.9882 412.585 100.667 412.585 100.667C412.585 100.667 412.166 96.8894 409.646 95.2103C406.286 93.1115 402.507 93.951 400.407 96.8894C398.727 99.4079 399.147 103.186 399.567 105.704C400.407 109.482 402.087 113.68 403.347 115.779C405.866 115.779 410.486 115.359 413.845 114.1C417.205 113.68 420.564 112.421 421.824 109.482Z" fill="url(#paint1_linear_728_2323)"/>
<path opacity="0.1992" d="M175.735 121.235C177.415 105.285 166.496 89.3335 146.758 87.2347C131.22 85.5557 118.202 98.9881 118.202 98.9881C118.202 98.9881 110.223 82.1976 94.6849 78.8395C75.3673 74.6419 59.8292 86.3952 56.4697 101.926C53.1101 117.458 61.509 132.989 69.0681 143.903C79.1468 158.594 95.1048 174.965 104.344 182.521C116.102 178.323 136.26 167.829 150.118 156.915C161.037 149.36 174.055 137.186 175.735 121.235Z" fill="url(#paint2_linear_728_2323)"/>
<path opacity="0.6332" d="M735.524 101.087C735.104 96.4696 731.325 92.6917 725.865 93.1115C721.666 93.5313 718.726 97.7289 718.726 97.7289C718.726 97.7289 715.787 93.5313 711.587 93.1115C706.128 92.6917 702.348 96.8894 702.348 101.087C701.928 105.285 705.288 109.482 707.808 112.001C711.167 115.779 716.207 119.137 719.146 121.236C722.086 119.557 727.125 115.779 730.485 112.001C732.585 109.482 735.944 105.704 735.524 101.087Z" fill="url(#paint3_linear_728_2323)"/>
<path opacity="0.483" d="M304.659 104.865C305.919 100.667 303.819 96.0498 298.36 94.7905C294.16 93.5312 290.381 96.4695 290.381 96.4695C290.381 96.4695 289.121 91.8521 284.921 90.1731C279.882 88.0743 275.263 90.5929 274.003 94.7905C272.323 98.5683 274.003 103.186 275.263 106.544C277.362 110.741 280.722 115.779 282.822 118.297C286.181 117.458 291.64 115.779 295.84 113.68C299.2 111.581 303.399 109.062 304.659 104.865Z" fill="url(#paint4_linear_728_2323)"/>
<path opacity="0.8236" d="M883.346 104.025C884.185 100.667 882.506 96.8893 878.306 95.63C874.947 94.7905 872.007 96.8893 872.007 96.8893C872.007 96.8893 870.747 93.1115 867.808 91.8522C864.028 90.1731 860.248 92.2719 858.989 95.63C857.729 98.5684 858.989 102.346 860.248 104.865C861.928 108.223 864.448 112.421 866.548 114.519C869.067 114.1 873.687 112.421 877.046 110.741C879.566 109.482 882.506 107.383 883.346 104.025Z" fill="url(#paint5_linear_728_2323)"/>
<path opacity="0.9954" d="M597.782 125.433C597.782 115.359 590.223 106.124 578.044 106.124C568.386 105.704 561.246 114.939 561.246 114.939C561.246 114.939 555.367 104.865 545.708 104.025C533.53 102.346 524.711 110.742 523.451 120.396C522.191 130.051 528.49 139.285 533.53 145.582C540.669 154.397 551.168 163.212 557.467 167.829C564.186 164.471 576.365 156.915 584.344 149.36C590.223 143.483 597.782 135.088 597.782 125.433Z" fill="url(#paint6_linear_728_2323)"/>
</g>
<defs>
<linearGradient id="paint0_linear_728_2323" x1="795.421" y1="235.765" x2="809.692" y2="197.952" gradientUnits="userSpaceOnUse">
<stop stop-color="#FF0029"/>
<stop offset="1" stop-color="#FF6691"/>
</linearGradient>
<linearGradient id="paint1_linear_728_2323" x1="403.354" y1="115.676" x2="414.619" y2="98.0225" gradientUnits="userSpaceOnUse">
<stop stop-color="#FF0029"/>
<stop offset="1" stop-color="#FF6691"/>
</linearGradient>
<linearGradient id="paint2_linear_728_2323" x1="102.143" y1="182.431" x2="122.199" y2="82.1508" gradientUnits="userSpaceOnUse">
<stop stop-color="#FF0029"/>
<stop offset="1" stop-color="#FF6691"/>
</linearGradient>
<linearGradient id="paint3_linear_728_2323" x1="718.1" y1="121.323" x2="719.057" y2="92.9303" gradientUnits="userSpaceOnUse">
<stop stop-color="#FF0029"/>
<stop offset="1" stop-color="#FF6691"/>
</linearGradient>
<linearGradient id="paint4_linear_728_2323" x1="282.371" y1="117.81" x2="292.075" y2="92.2792" gradientUnits="userSpaceOnUse">
<stop stop-color="#FF0029"/>
<stop offset="1" stop-color="#FF6691"/>
</linearGradient>
<linearGradient id="paint5_linear_728_2323" x1="865.802" y1="114.554" x2="873.583" y2="94.012" gradientUnits="userSpaceOnUse">
<stop stop-color="#FF0029"/>
<stop offset="1" stop-color="#FF6691"/>
</linearGradient>
<linearGradient id="paint6_linear_728_2323" x1="555.738" y1="167.183" x2="562.624" y2="104.081" gradientUnits="userSpaceOnUse">
<stop stop-color="#FF0029"/>
<stop offset="1" stop-color="#FF6691"/>
</linearGradient>
<clipPath id="clip0_728_2323">
<rect width="961" height="193" fill="white"/>
</clipPath>
</defs>
</svg>
